# Blender v3.0.1 OBJ File: ''
# www.blender.org
mtllib passport1.mtl
o Book_Plane.003
v -0.512159 0.042260 0.200156
v -0.512159 -0.042390 0.200156
v 0.508937 0.042260 0.217995
v 0.508937 -0.042390 0.217995
v -0.512159 0.042260 -0.455688
v -0.502473 0.042260 -0.464702
v -0.511422 0.042260 -0.459137
v -0.509322 0.042260 -0.462062
v -0.506180 0.042260 -0.464016
v -0.502473 -0.042390 -0.464702
v -0.512159 -0.042390 -0.455688
v -0.506180 -0.042390 -0.464016
v -0.509322 -0.042390 -0.462062
v -0.511422 -0.042390 -0.459137
v 0.503460 0.042260 -0.464702
v 0.513091 0.042260 -0.455688
v 0.507163 0.042260 -0.464016
v 0.510293 0.042260 -0.462062
v 0.512375 0.042260 -0.459138
v 0.513091 -0.042390 -0.455688
v 0.503460 -0.042390 -0.464702
v 0.512375 -0.042390 -0.459138
v 0.510293 -0.042390 -0.462062
v 0.507163 -0.042390 -0.464016
v -0.533031 -0.023869 0.194022
v 0.532975 -0.023869 0.194022
v -0.533031 -0.023869 -0.478109
v 0.532975 -0.023869 -0.478109
v -0.533031 0.023896 0.194022
v 0.532975 0.023896 0.194022
v -0.533031 0.023896 -0.478109
v 0.532975 0.023896 -0.478109
v -0.533031 -0.030910 0.203784
v -0.484138 -0.027517 0.230474
v -0.484138 -0.050162 0.201011
v -0.529309 -0.030132 0.213095
v -0.518711 -0.029214 0.221437
v -0.529309 -0.038798 0.194442
v -0.524817 -0.038177 0.208357
v -0.516224 -0.037014 0.218095
v -0.512366 -0.041308 0.216593
v -0.484138 -0.035663 0.230134
v -0.484138 -0.042827 0.224066
v -0.502849 -0.028296 0.227539
v -0.503318 -0.036685 0.225346
v -0.502344 -0.042479 0.220515
v -0.502849 -0.049216 0.199055
v -0.518711 -0.045226 0.196748
v -0.484138 -0.047918 0.213840
v -0.503318 -0.046643 0.212106
v -0.516224 -0.043443 0.209547
v 0.484083 -0.027517 0.230474
v 0.532975 -0.030910 0.203784
v 0.484083 -0.050162 0.201011
v 0.502793 -0.028296 0.227539
v 0.518655 -0.029214 0.221437
v 0.484083 -0.035663 0.230134
v 0.503262 -0.036685 0.225346
v 0.516169 -0.037014 0.218095
v 0.512311 -0.041308 0.216593
v 0.529254 -0.038798 0.194442
v 0.518655 -0.045226 0.196748
v 0.529254 -0.030132 0.213095
v 0.524762 -0.038177 0.208357
v 0.516169 -0.043443 0.209547
v 0.484083 -0.047918 0.213840
v 0.484083 -0.042827 0.224066
v 0.502793 -0.049216 0.199055
v 0.503262 -0.046643 0.212106
v 0.502289 -0.042479 0.220515
v -0.484138 -0.050162 -0.448001
v -0.533031 -0.030659 -0.478109
v -0.502849 -0.048677 -0.459523
v -0.518711 -0.044449 -0.469291
v -0.529309 -0.038122 -0.475818
v 0.532975 -0.030659 -0.478109
v 0.484083 -0.050162 -0.448001
v 0.529254 -0.038122 -0.475818
v 0.518655 -0.044449 -0.469291
v 0.502793 -0.048677 -0.459523
v -0.484138 0.050188 0.201011
v -0.484138 0.027544 0.230474
v -0.533031 0.030937 0.203784
v -0.484138 0.047945 0.213840
v -0.484138 0.042853 0.224066
v -0.502849 0.049243 0.199055
v -0.503318 0.046669 0.212106
v -0.502344 0.042506 0.220515
v -0.512366 0.041335 0.216593
v -0.502849 0.028323 0.227539
v -0.518711 0.029241 0.221437
v -0.484138 0.035690 0.230134
v -0.503318 0.036712 0.225346
v -0.516224 0.037041 0.218095
v -0.529309 0.038824 0.194442
v -0.518711 0.045253 0.196748
v -0.529309 0.030159 0.213095
v -0.524817 0.038204 0.208357
v -0.516224 0.043469 0.209547
v 0.484083 0.027544 0.230474
v 0.484083 0.050188 0.201011
v 0.532975 0.030937 0.203784
v 0.484083 0.035690 0.230134
v 0.484083 0.042853 0.224066
v 0.502793 0.028323 0.227539
v 0.503262 0.036712 0.225346
v 0.502289 0.042506 0.220515
v 0.512311 0.041335 0.216593
v 0.502793 0.049243 0.199055
v 0.518655 0.045253 0.196748
v 0.484083 0.047945 0.213840
v 0.503262 0.046669 0.212106
v 0.516169 0.043469 0.209547
v 0.529254 0.030159 0.213095
v 0.518655 0.029241 0.221437
v 0.529254 0.038824 0.194442
v 0.524762 0.038204 0.208357
v 0.516169 0.037041 0.218095
v -0.533031 0.030686 -0.478109
v -0.484138 0.050189 -0.448001
v -0.529309 0.038149 -0.475818
v -0.518711 0.044476 -0.469291
v -0.502849 0.048704 -0.459523
v 0.484083 0.050189 -0.448001
v 0.532975 0.030686 -0.478109
v 0.502793 0.048704 -0.459523
v 0.518655 0.044476 -0.469291
v 0.529254 0.038149 -0.475818
v -0.527426 0.000013 0.194022
v 0.527371 0.000013 0.194022
v -0.479048 0.000013 0.230474
v -0.497562 0.000013 0.227539
v -0.513257 0.000013 0.221437
v -0.523744 0.000013 0.213095
v -0.527426 0.000013 0.203784
v 0.527371 0.000013 0.203784
v 0.523688 0.000013 0.213095
v 0.513201 0.000013 0.221437
v 0.497506 0.000013 0.227539
v 0.478993 0.000013 0.230474
vt 0.017210 0.999493
vt 0.985664 0.999493
vt 0.985664 0.667004
vt 0.017210 0.667004
vt 0.017197 0.666245
vt 0.714217 0.666242
vt 0.714217 0.333754
vt 0.017197 0.333755
vt 0.013572 0.667004
vt 0.013572 0.999493
vt 0.009933 0.667004
vt 0.009933 0.999493
vt 0.695762 0.000506
vt 0.692123 0.000506
vt 0.692123 0.332995
vt 0.695762 0.332995
vt 0.688484 0.000506
vt 0.688484 0.332995
vt 0.013562 0.333755
vt 0.013562 0.666244
vt 0.009933 0.333755
vt 0.009933 0.666245
vt 0.992928 0.667004
vt 0.989299 0.667004
vt 0.989299 0.999494
vt 0.992928 0.999494
vt 0.009933 0.332995
vt 0.009933 0.000506
vt 0.422562 0.982075
vt 0.000000 0.982075
vt 0.000000 0.498672
vt 0.422562 0.498672
vt 0.883843 0.518932
vt 0.863402 0.519189
vt 0.857376 0.512206
vt 0.883843 0.511949
vt 0.910094 1.000000
vt 0.904283 1.000000
vt 0.904283 0.519189
vt 0.910309 0.512206
vt 0.981721 0.519189
vt 0.987748 0.512206
vt 0.987533 1.000000
vt 0.981721 1.000000
vt 0.961281 0.511949
vt 0.961281 0.518932
vt 0.808713 0.016600
vt 0.808713 0.483374
vt 0.424913 0.483374
vt 0.424913 0.016600
vt 0.934814 0.512206
vt 0.940840 0.519189
vt 0.940840 1.000000
vt 0.935029 1.000000
vt 0.422562 0.982075
vt 0.422562 0.498672
vt 0.845123 0.498672
vt 0.845123 0.982075
vt 0.858923 0.017567
vt 0.882472 0.015312
vt 0.882472 0.444140
vt 0.858923 0.441885
vt 0.960014 0.472137
vt 0.954202 0.472137
vt 0.954202 0.000000
vt 0.960014 0.000000
vt 0.397504 0.482073
vt 0.013704 0.482073
vt 0.013704 0.015298
vt 0.397504 0.015298
vt 0.936588 0.000000
vt 0.942399 0.000000
vt 0.942399 0.472137
vt 0.936588 0.472137
vt 0.916147 0.002482
vt 0.936588 0.000000
vt 0.936588 0.472137
vt 0.916147 0.469655
vt 0.850625 0.518719
vt 0.851156 0.508559
vt 0.858042 0.505375
vt 0.852152 0.501199
vt 0.858828 0.498922
vt 0.845123 0.516583
vt 0.846650 0.507313
vt 0.848476 0.502097
vt 0.883202 0.007025
vt 0.890426 0.006818
vt 0.889447 0.015312
vt 0.895487 0.007249
vt 0.895707 0.015312
vt 0.884120 0.000000
vt 0.890865 0.001101
vt 0.894571 0.002810
vt 0.808713 0.007368
vt 0.816316 0.008612
vt 0.816130 0.018004
vt 0.821432 0.010444
vt 0.822417 0.019653
vt 0.808713 0.000000
vt 0.815930 0.002554
vt 0.819903 0.005372
vt 0.889447 0.444140
vt 0.890426 0.452634
vt 0.883202 0.452427
vt 0.890865 0.458351
vt 0.884120 0.459452
vt 0.895707 0.444140
vt 0.895487 0.452203
vt 0.894571 0.456642
vt 0.987082 0.505375
vt 0.993967 0.508559
vt 0.994498 0.518719
vt 0.998474 0.507313
vt 1.000000 0.516583
vt 0.986296 0.498922
vt 0.992972 0.501199
vt 0.996647 0.502097
vt 0.417496 0.018004
vt 0.417310 0.008612
vt 0.424913 0.007368
vt 0.417696 0.002554
vt 0.424913 0.000000
vt 0.411209 0.019653
vt 0.412194 0.010444
vt 0.413723 0.005372
vt 0.404921 0.480668
vt 0.405107 0.490061
vt 0.397504 0.491305
vt 0.404721 0.496118
vt 0.397504 0.498672
vt 0.411209 0.479019
vt 0.410223 0.488228
vt 0.408694 0.493301
vt 0.835373 0.015312
vt 0.828413 0.015312
vt 0.827643 0.006818
vt 0.834771 0.007025
vt 0.827519 0.001101
vt 0.834119 0.000000
vt 0.822417 0.015312
vt 0.822792 0.007249
vt 0.823879 0.002810
vt 0.909643 0.505375
vt 0.916529 0.508559
vt 0.917060 0.518719
vt 0.921035 0.507313
vt 0.922562 0.516583
vt 0.908857 0.498922
vt 0.915534 0.501199
vt 0.919209 0.502097
vt 0.835373 0.444140
vt 0.834771 0.452427
vt 0.827643 0.452634
vt 0.828413 0.444140
vt 0.822792 0.452203
vt 0.822417 0.444140
vt 0.834119 0.459452
vt 0.827519 0.458351
vt 0.823879 0.456642
vt 0.013704 0.491305
vt 0.006102 0.490061
vt 0.006288 0.480668
vt 0.000986 0.488228
vt 0.000000 0.479019
vt 0.013704 0.498672
vt 0.006487 0.496119
vt 0.002515 0.493301
vt 0.928063 0.518719
vt 0.928594 0.508559
vt 0.935480 0.505375
vt 0.929590 0.501199
vt 0.936266 0.498922
vt 0.922562 0.516583
vt 0.924088 0.507313
vt 0.925915 0.502097
vt 0.857591 1.000000
vt 0.851203 0.998190
vt 0.845788 0.993036
vt 0.822417 0.498672
vt 0.816130 0.491657
vt 0.993920 0.998190
vt 0.999336 0.993036
vt 0.417496 0.491657
vt 0.411209 0.498672
vt 0.948787 0.001648
vt 0.948787 0.470488
vt 0.954202 0.006342
vt 0.954202 0.465794
vt 0.404921 0.007015
vt 0.411209 0.000000
vt 0.921897 0.993036
vt 0.916482 0.998190
vt 0.006288 0.007015
vt 0.000000 0.000000
vt 0.928641 0.998190
vt 0.923226 0.993036
vt 0.971816 0.465794
vt 0.966401 0.470488
vt 0.966401 0.001648
vt 0.971816 0.006342
vt 0.858986 0.009367
vt 0.859119 0.002416
vt 0.883843 0.498672
vt 0.883843 0.505120
vt 0.961281 0.505120
vt 0.961281 0.498672
vt 0.859119 0.457036
vt 0.858986 0.450085
vt 0.863402 1.000000
vt 0.895707 0.000000
vt 0.895707 0.472137
vn -0.0914 0.0000 -0.9958
vn 0.0915 0.0000 -0.9958
vn 0.9951 0.0000 -0.0991
vn 1.0000 0.0000 0.0062
vn -0.3613 0.0000 -0.9325
vn -0.6832 0.0000 -0.7302
vn -0.9144 0.0000 -0.4047
vn -0.9945 0.0000 -0.1051
vn 0.9165 0.0000 -0.4001
vn 0.6853 0.0000 -0.7282
vn 0.3622 0.0000 -0.9321
vn -1.0000 0.0000 0.0000
vn -0.8939 0.3861 -0.2278
vn 0.8939 0.3861 -0.2278
vn 0.5774 0.5773 -0.5774
vn -0.5774 0.5773 -0.5774
vn -0.6728 -0.0000 -0.7399
vn -0.9444 -0.2388 0.2260
vn -0.9745 -0.0000 0.2243
vn -0.7003 0.2294 -0.6760
vn -0.5774 -0.5773 -0.5774
vn -0.8939 -0.3861 -0.2278
vn -0.9444 0.2388 0.2260
vn 0.9444 -0.2388 0.2260
vn 0.7003 -0.2294 -0.6760
vn 0.9745 0.0000 0.2243
vn 0.6728 -0.0000 -0.7399
vn -0.0352 -0.9952 0.0915
vn -0.0219 -0.9984 -0.0529
vn 0.0219 -0.9984 -0.0529
vn 0.0352 -0.9952 0.0915
vn 0.9444 0.2388 0.2260
vn 0.8939 -0.3861 -0.2278
vn 0.5774 -0.5773 -0.5774
vn 0.7003 0.2294 -0.6760
vn -0.0693 0.0000 0.9976
vn -0.0916 -0.0372 0.9951
vn 0.0916 -0.0372 0.9951
vn 0.0693 0.0000 0.9976
vn -0.0352 0.9952 0.0915
vn 0.0352 0.9952 0.0915
vn 0.0219 0.9984 -0.0529
vn -0.0219 0.9984 -0.0529
vn -0.7003 -0.2294 -0.6760
vn -0.7267 -0.6817 0.0847
vn -0.6034 -0.6957 0.3897
vn -0.7865 -0.2298 0.5732
vn -0.4683 -0.5592 0.6841
vn -0.5120 -0.1813 0.8397
vn -0.4042 -0.9090 0.1016
vn -0.4166 -0.8423 0.3420
vn -0.3807 -0.7357 0.5602
vn -0.2806 -0.0906 0.9555
vn -0.2835 -0.4501 0.8468
vn -0.0901 -0.3764 0.9221
vn -0.2236 -0.7665 0.6020
vn -0.0665 -0.7802 0.6219
vn -0.0448 -0.9471 0.3177
vn -0.1878 -0.9296 0.3172
vn -0.1639 -0.9822 0.0914
vn 0.0901 -0.3764 0.9221
vn 0.2835 -0.4501 0.8468
vn 0.2806 -0.0906 0.9555
vn 0.4683 -0.5592 0.6841
vn 0.5120 -0.1813 0.8397
vn 0.0665 -0.7802 0.6219
vn 0.2236 -0.7665 0.6020
vn 0.3807 -0.7357 0.5602
vn 0.7865 -0.2298 0.5732
vn 0.6034 -0.6957 0.3897
vn 0.7267 -0.6817 0.0847
vn 0.4166 -0.8423 0.3420
vn 0.4042 -0.9090 0.1016
vn 0.1639 -0.9822 0.0914
vn 0.1878 -0.9296 0.3172
vn 0.0448 -0.9471 0.3177
vn -0.1639 0.9822 0.0914
vn -0.1878 0.9296 0.3172
vn -0.0448 0.9471 0.3177
vn -0.2236 0.7665 0.6020
vn -0.0665 0.7802 0.6219
vn -0.4042 0.9090 0.1016
vn -0.4166 0.8423 0.3420
vn -0.3807 0.7357 0.5602
vn -0.0916 0.0372 0.9951
vn -0.0901 0.3764 0.9221
vn -0.2835 0.4501 0.8468
vn -0.2806 0.0906 0.9555
vn -0.4683 0.5592 0.6841
vn -0.5120 0.1813 0.8397
vn -0.7865 0.2298 0.5732
vn -0.6034 0.6957 0.3897
vn -0.7267 0.6817 0.0847
vn 0.0916 0.0372 0.9951
vn 0.2806 0.0906 0.9555
vn 0.2835 0.4501 0.8468
vn 0.0901 0.3764 0.9221
vn 0.2236 0.7665 0.6020
vn 0.0665 0.7802 0.6219
vn 0.5120 0.1813 0.8397
vn 0.4683 0.5592 0.6841
vn 0.3807 0.7357 0.5602
vn 0.0448 0.9471 0.3177
vn 0.1878 0.9296 0.3172
vn 0.1639 0.9822 0.0914
vn 0.4166 0.8423 0.3420
vn 0.4042 0.9090 0.1016
vn 0.7267 0.6817 0.0847
vn 0.6034 0.6957 0.3897
vn 0.7865 0.2298 0.5732
vn -0.5108 -0.6534 -0.5587
vn -0.2369 -0.9075 -0.3468
vn -0.0977 -0.9790 -0.1788
vn 0.5108 -0.6534 -0.5587
vn 0.2369 -0.9075 -0.3468
vn 0.0977 -0.9790 -0.1788
vn -0.0977 0.9790 -0.1788
vn -0.2369 0.9075 -0.3468
vn -0.5108 0.6534 -0.5587
vn 0.0977 0.9790 -0.1788
vn 0.2369 0.9075 -0.3468
vn 0.5108 0.6534 -0.5587
vn -0.2491 0.0000 0.9685
vn -0.4852 -0.0000 0.8744
vn -0.7942 -0.0000 0.6077
vn 0.7942 -0.0000 0.6077
vn 0.4852 -0.0000 0.8744
vn 0.2491 0.0000 0.9685
usemtl Material.005
s 1
f 6/1/1 15/2/2 21/3/2 10/4/1
f 16/5/3 3/6/4 4/7/4 20/8/3
f 10/4/1 12/9/5 9/10/5 6/1/1
f 12/9/5 13/11/6 8/12/6 9/10/5
f 13/13/6 14/14/7 7/15/7 8/16/6
f 14/14/7 11/17/8 5/18/8 7/15/7
f 20/8/3 22/19/9 19/20/9 16/5/3
f 22/19/9 23/21/10 18/22/10 19/20/9
f 23/23/10 24/24/11 17/25/11 18/26/10
f 24/24/11 21/3/2 15/2/2 17/25/11
f 1/27/12 5/18/8 11/17/8 2/28/12
usemtl Material.002
f 25/29/13 26/30/14 28/31/15 27/32/16
f 129/33/17 25/34/13 33/35/18 135/36/19
f 119/37/20 31/38/21 29/39/22 83/40/23
f 26/41/14 53/42/24 76/43/25 28/44/15
f 136/45/26 53/42/24 26/41/14 130/46/27
f 35/47/28 71/48/29 77/49/30 54/50/31
f 102/51/32 30/52/33 32/53/34 125/54/35
f 29/55/22 31/56/21 32/57/34 30/58/33
f 131/59/36 34/60/37 52/61/38 140/62/39
f 125/63/35 32/64/34 31/65/21 119/66/20
f 81/67/40 101/68/41 124/69/42 120/70/43
f 28/71/15 76/72/25 72/73/44 27/74/16
f 130/75/27 26/76/14 25/77/13 129/78/17
f 33/35/18 38/79/45 39/80/46 36/81/47
f 36/81/47 39/80/46 40/82/48 37/83/49
f 38/79/45 48/84/50 51/85/51 39/80/46
f 39/80/46 51/85/51 41/86/52 40/82/48
f 34/60/37 44/87/53 45/88/54 42/89/55
f 42/89/55 45/88/54 46/90/56 43/91/57
f 44/87/53 37/92/49 40/93/48 45/88/54
f 45/88/54 40/93/48 41/94/52 46/90/56
f 35/47/28 49/95/58 50/96/59 47/97/60
f 47/97/60 50/96/59 51/98/51 48/99/50
f 49/95/58 43/100/57 46/101/56 50/96/59
f 50/96/59 46/101/56 41/102/52 51/98/51
f 52/61/38 57/103/61 58/104/62 55/105/63
f 55/105/63 58/104/62 59/106/64 56/107/65
f 57/103/61 67/108/66 70/109/67 58/104/62
f 58/104/62 70/109/67 60/110/68 59/106/64
f 53/42/24 63/111/69 64/112/70 61/113/71
f 61/113/71 64/112/70 65/114/72 62/115/73
f 63/111/69 56/116/65 59/117/64 64/112/70
f 64/112/70 59/117/64 60/118/68 65/114/72
f 54/50/31 68/119/74 69/120/75 66/121/76
f 66/121/76 69/120/75 70/122/67 67/123/66
f 68/119/74 62/124/73 65/125/72 69/120/75
f 69/120/75 65/125/72 60/126/68 70/122/67
f 81/67/40 86/127/77 87/128/78 84/129/79
f 84/129/79 87/128/78 88/130/80 85/131/81
f 86/127/77 96/132/82 99/133/83 87/128/78
f 87/128/78 99/133/83 89/134/84 88/130/80
f 82/135/85 92/136/86 93/137/87 90/138/88
f 90/138/88 93/137/87 94/139/89 91/140/90
f 92/136/86 85/141/81 88/142/80 93/137/87
f 93/137/87 88/142/80 89/143/84 94/139/89
f 83/40/23 97/144/91 98/145/92 95/146/93
f 95/146/93 98/145/92 99/147/83 96/148/82
f 97/144/91 91/149/90 94/150/89 98/145/92
f 98/145/92 94/150/89 89/151/84 99/147/83
f 100/152/94 105/153/95 106/154/96 103/155/97
f 103/155/97 106/154/96 107/156/98 104/157/99
f 105/153/95 115/158/100 118/159/101 106/154/96
f 106/154/96 118/159/101 108/160/102 107/156/98
f 101/68/41 111/161/103 112/162/104 109/163/105
f 109/163/105 112/162/104 113/164/106 110/165/107
f 111/161/103 104/166/99 107/167/98 112/162/104
f 112/162/104 107/167/98 108/168/102 113/164/106
f 102/51/32 116/169/108 117/170/109 114/171/110
f 114/171/110 117/170/109 118/172/101 115/173/100
f 116/169/108 110/174/107 113/175/106 117/170/109
f 117/170/109 113/175/106 108/176/102 118/172/101
f 72/177/44 75/178/111 38/79/45 33/35/18
f 75/178/111 74/179/112 48/84/50 38/79/45
f 74/180/112 73/181/113 47/97/60 48/99/50
f 73/181/113 71/48/29 35/47/28 47/97/60
f 34/60/37 42/89/55 57/103/61 52/61/38
f 42/89/55 43/91/57 67/108/66 57/103/61
f 43/100/57 49/95/58 66/121/76 67/123/66
f 49/95/58 35/47/28 54/50/31 66/121/76
f 53/42/24 61/113/71 78/182/114 76/43/25
f 61/113/71 62/115/73 79/183/115 78/182/114
f 62/124/73 68/119/74 80/184/116 79/185/115
f 68/119/74 54/50/31 77/49/30 80/184/116
f 76/72/25 78/186/114 75/187/111 72/73/44
f 78/186/114 79/188/115 74/189/112 75/187/111
f 79/185/115 80/184/116 73/181/113 74/180/112
f 80/184/116 77/49/30 71/48/29 73/181/113
f 120/70/43 123/190/117 86/127/77 81/67/40
f 123/190/117 122/191/118 96/132/82 86/127/77
f 122/192/118 121/193/119 95/146/93 96/148/82
f 121/193/119 119/37/20 83/40/23 95/146/93
f 81/67/40 84/129/79 111/161/103 101/68/41
f 84/129/79 85/131/81 104/166/99 111/161/103
f 85/141/81 92/136/86 103/155/97 104/157/99
f 92/136/86 82/135/85 100/152/94 103/155/97
f 101/68/41 109/163/105 126/194/120 124/69/42
f 109/163/105 110/165/107 127/195/121 126/194/120
f 110/174/107 116/169/108 128/196/122 127/197/121
f 116/169/108 102/51/32 125/54/35 128/196/122
f 124/69/42 126/194/120 123/190/117 120/70/43
f 126/194/120 127/195/121 122/191/118 123/190/117
f 127/198/121 128/199/122 121/200/119 122/201/118
f 128/199/122 125/63/35 119/66/20 121/200/119
f 131/59/36 132/202/123 44/87/53 34/60/37
f 132/202/123 133/203/124 37/92/49 44/87/53
f 133/204/124 134/205/125 36/81/47 37/83/49
f 134/205/125 135/36/19 33/35/18 36/81/47
f 136/45/26 137/206/126 63/111/69 53/42/24
f 137/206/126 138/207/127 56/116/65 63/111/69
f 138/208/127 139/209/128 55/105/63 56/107/65
f 139/209/128 140/62/39 52/61/38 55/105/63
f 27/210/16 72/177/44 33/35/18 25/34/13
f 105/153/95 100/152/94 140/62/39 139/209/128
f 115/158/100 105/153/95 139/209/128 138/208/127
f 114/171/110 115/173/100 138/207/127 137/206/126
f 102/51/32 114/171/110 137/206/126 136/45/26
f 97/144/91 83/40/23 135/36/19 134/205/125
f 91/149/90 97/144/91 134/205/125 133/204/124
f 90/138/88 91/140/90 133/203/124 132/202/123
f 82/135/85 90/138/88 132/202/123 131/59/36
f 30/211/33 130/75/27 129/78/17 29/212/22
f 82/135/85 131/59/36 140/62/39 100/152/94
f 102/51/32 136/45/26 130/46/27 30/52/33
f 29/39/22 129/33/17 135/36/19 83/40/23
o Cube_Cube.212
v -0.320801 0.021231 -0.062116
v -0.320801 0.069628 -0.062116
v 0.191256 0.021231 -0.062116
v 0.191256 0.069628 -0.062116
v -0.320801 0.021231 -0.011470
v -0.320801 0.069628 -0.011470
v 0.191256 0.021231 -0.011470
v 0.191256 0.069628 -0.011470
vt 0.375000 0.000000
vt 0.625000 0.000000
vt 0.625000 0.250000
vt 0.375000 0.250000
vt 0.625000 0.500000
vt 0.375000 0.500000
vt 0.625000 0.750000
vt 0.375000 0.750000
vt 0.625000 1.000000
vt 0.375000 1.000000
vt 0.125000 0.500000
vt 0.125000 0.750000
vt 0.875000 0.500000
vt 0.875000 0.750000
vn 0.0000 0.0000 -1.0000
vn 1.0000 -0.0000 0.0000
vn -0.0000 -0.0000 1.0000
vn -1.0000 -0.0000 0.0000
vn 0.0000 -1.0000 -0.0000
vn -0.0000 1.0000 0.0000
usemtl Material
s off
f 141/213/129 142/214/129 144/215/129 143/216/129
f 143/216/130 144/215/130 148/217/130 147/218/130
f 147/218/131 148/217/131 146/219/131 145/220/131
f 145/220/132 146/219/132 142/221/132 141/222/132
f 143/223/133 147/218/133 145/220/133 141/224/133
f 148/217/134 144/225/134 142/226/134 146/219/134
o Cube.001_Cube.213
v -0.320672 0.019106 -0.280771
v -0.320672 0.069866 -0.280771
v -0.251810 0.019106 -0.280771
v -0.251810 0.069866 -0.280771
v -0.320672 0.019106 -0.012275
v -0.320672 0.069866 -0.012275
v -0.251810 0.019106 -0.012275
v -0.251810 0.069866 -0.012275
vt 0.375000 0.000000
vt 0.625000 0.000000
vt 0.625000 0.250000
vt 0.375000 0.250000
vt 0.625000 0.500000
vt 0.375000 0.500000
vt 0.625000 0.750000
vt 0.375000 0.750000
vt 0.625000 1.000000
vt 0.375000 1.000000
vt 0.125000 0.500000
vt 0.125000 0.750000
vt 0.875000 0.500000
vt 0.875000 0.750000
vn 0.0000 0.0000 -1.0000
vn 1.0000 0.0000 0.0000
vn 0.0000 0.0000 1.0000
vn -1.0000 0.0000 0.0000
vn 0.0000 -1.0000 -0.0000
vn 0.0000 1.0000 0.0000
usemtl Material
s off
f 149/227/135 150/228/135 152/229/135 151/230/135
f 151/230/136 152/229/136 156/231/136 155/232/136
f 155/232/137 156/231/137 154/233/137 153/234/137
f 153/234/138 154/233/138 150/235/138 149/236/138
f 151/237/139 155/232/139 153/234/139 149/238/139
f 156/231/140 152/239/140 150/240/140 154/233/140
o Cube.002_Cube.214
v -0.320336 0.021231 -0.281262
v -0.320336 0.075352 -0.281262
v -0.087210 0.021231 -0.281262
v -0.087210 0.075352 -0.281262
v -0.320336 0.021231 -0.222929
v -0.320336 0.075352 -0.222929
v -0.087210 0.021231 -0.222929
v -0.087210 0.075352 -0.222929
vt 0.375000 0.000000
vt 0.625000 0.000000
vt 0.625000 0.250000
vt 0.375000 0.250000
vt 0.625000 0.500000
vt 0.375000 0.500000
vt 0.625000 0.750000
vt 0.375000 0.750000
vt 0.625000 1.000000
vt 0.375000 1.000000
vt 0.125000 0.500000
vt 0.125000 0.750000
vt 0.875000 0.500000
vt 0.875000 0.750000
vn 0.0000 0.0000 -1.0000
vn 1.0000 0.0000 0.0000
vn -0.0000 0.0000 1.0000
vn -1.0000 -0.0000 0.0000
vn 0.0000 -1.0000 -0.0000
vn 0.0000 1.0000 0.0000
usemtl Material
s off
f 157/241/141 158/242/141 160/243/141 159/244/141
f 159/244/142 160/243/142 164/245/142 163/246/142
f 163/246/143 164/245/143 162/247/143 161/248/143
f 161/248/144 162/247/144 158/249/144 157/250/144
f 159/251/145 163/246/145 161/248/145 157/252/145
f 164/245/146 160/253/146 158/254/146 162/247/146
o Cube.003_Cube.215
v -0.150076 0.016398 -0.252430
v -0.150076 0.061445 -0.252430
v -0.089196 0.016398 -0.252430
v -0.089196 0.061445 -0.252430
v -0.150076 0.016398 -0.035365
v -0.150076 0.061444 -0.035365
v -0.089196 0.016398 -0.035365
v -0.089196 0.061444 -0.035365
vt 0.375000 0.000000
vt 0.625000 0.000000
vt 0.625000 0.250000
vt 0.375000 0.250000
vt 0.625000 0.500000
vt 0.375000 0.500000
vt 0.625000 0.750000
vt 0.375000 0.750000
vt 0.625000 1.000000
vt 0.375000 1.000000
vt 0.125000 0.500000
vt 0.125000 0.750000
vt 0.875000 0.500000
vt 0.875000 0.750000
vn 0.0000 0.0000 -1.0000
vn 1.0000 0.0000 0.0000
vn 0.0000 0.0000 1.0000
vn -1.0000 0.0000 -0.0000
vn 0.0000 -1.0000 -0.0000
vn 0.0000 1.0000 0.0000
usemtl Material
s off
f 165/255/147 166/256/147 168/257/147 167/258/147
f 167/258/148 168/257/148 172/259/148 171/260/148
f 171/260/149 172/259/149 170/261/149 169/262/149
f 169/262/150 170/261/150 166/263/150 165/264/150
f 167/265/151 171/260/151 169/262/151 165/266/151
f 172/259/152 168/267/152 166/268/152 170/261/152
